<svg xmlns="http://www.w3.org/2000/svg" viewBox="0 0 100 100" width="100" height="100">
   <defs>
     <linearGradient id="leafGrad" x1="0%" y1="0%" x2="100%" y2="100%">
       <stop offset="0%" style="stop-color:#7cb342;stop-opacity:1" />
       <stop offset="100%" style="stop-color:#558b2f;stop-opacity:1" />
     </linearGradient>
     
     <linearGradient id="holoGrad" x1="0%" y1="0%" x2="100%" y2="100%">
       <stop offset="0%" style="stop-color:#00ffff;stop-opacity:0.9" />
       <stop offset="50%" style="stop-color:#00bcd4;stop-opacity:0.7" />
       <stop offset="100%" style="stop-color:#00838f;stop-opacity:0.8" />
     </linearGradient>
     
     <filter id="glow">
       <feGaussianBlur stdDeviation="2" result="coloredBlur"/>
       <feMerge>
         <feMergeNode in="coloredBlur"/>
         <feMergeNode in="SourceGraphic"/>
       </feMerge>
     </filter>
     
     <linearGradient id="trunkGrad" x1="0%" y1="0%" x2="100%" y2="0%">
       <stop offset="0%" style="stop-color:#5d4037;stop-opacity:1" />
       <stop offset="50%" style="stop-color:#795548;stop-opacity:1" />
       <stop offset="100%" style="stop-color:#4e342e;stop-opacity:1" />
     </linearGradient>
   </defs>
   
   <circle cx="8" cy="12" r="6" fill="url(#leafGrad)" opacity="0.7"/>
   <circle cx="20" cy="8" r="5" fill="url(#leafGrad)" opacity="0.6"/>
   <circle cx="85" cy="15" r="7" fill="url(#leafGrad)" opacity="0.5"/>
   <circle cx="92" cy="28" r="4" fill="url(#leafGrad)" opacity="0.6"/>
   <circle cx="3" cy="20" r="4" fill="url(#leafGrad)" opacity="0.5"/>
   <circle cx="15" cy="5" r="4.5" fill="url(#leafGrad)" opacity="0.6"/>
   <circle cx="30" cy="3" r="3.5" fill="url(#leafGrad)" opacity="0.5"/>
   <circle cx="75" cy="5" r="4" fill="url(#leafGrad)" opacity="0.6"/>
   <circle cx="95" cy="12" r="3.5" fill="url(#leafGrad)" opacity="0.5"/>
   <circle cx="80" cy="8" r="3" fill="url(#leafGrad)" opacity="0.7"/>
   <circle cx="50" cy="2" r="3" fill="url(#leafGrad)" opacity="0.5"/>
   <circle cx="60" cy="4" r="3.5" fill="url(#leafGrad)" opacity="0.6"/>
   <circle cx="40" cy="5" r="3" fill="url(#leafGrad)" opacity="0.5"/>
   <circle cx="10" cy="25" r="3" fill="url(#leafGrad)" opacity="0.4"/>
   <circle cx="90" cy="22" r="3.5" fill="url(#leafGrad)" opacity="0.5"/>
   
   <path d="M 82 25 Q 84 50 82 75 L 88 75 Q 90 50 88 25 Z" fill="url(#trunkGrad)"/>
   <ellipse cx="85" cy="25" rx="5" ry="3" fill="#6d4c41"/>
   
   <path d="M 65 60 Q 52 48 40 60 L 28 95 Q 42 100 65 95 L 72 90 Z" fill="#8d6e63"/>
   <circle cx="50" cy="38" r="16" fill="#ffccbc"/>
   <path d="M 34 32 Q 38 18 50 18 Q 66 18 66 32 Q 66 42 60 46 Q 50 32 34 32" fill="#3e2723"/>
   <path d="M 38 28 Q 42 22 50 22 Q 60 22 62 28" fill="none" stroke="#3e2723" stroke-width="1.5"/>
   
   <path d="M 8 75 L 38 70 L 42 85 L 12 90 Z" fill="#fff8e1"/>
   <path d="M 8 75 L 38 70 L 38 74 L 8 78 Z" fill="#ffecb3"/>
   <path d="M 12 90 L 42 85 L 42 90 L 12 95 Z" fill="#ffe0b2"/>
   
   <g filter="url(#glow)">
     <ellipse cx="25" cy="68" rx="20" ry="14" fill="url(#holoGrad)" opacity="0.25"/>
     
     <path d="M 5 55 L 45 48 L 50 68 L 10 78 Z" fill="url(#holoGrad)" opacity="0.85"/>
     
     <path d="M 5 55 L 45 48" stroke="#80deea" stroke-width="0.5" opacity="0.8"/>
     
     <path d="M 10 62 L 18 56 L 28 64 L 38 54 L 44 60" stroke="#e0f7fa" stroke-width="1.5" fill="none" opacity="0.95"/>
     <circle cx="18" cy="56" r="1.8" fill="#fff" opacity="0.95"/>
     <circle cx="28" cy="64" r="1.8" fill="#fff" opacity="0.95"/>
     <circle cx="38" cy="54" r="1.8" fill="#fff" opacity="0.95"/>
     
     <circle cx="15" cy="72" r="4.5" stroke="#e0f7fa" stroke-width="1" fill="none" opacity="0.85"/>
     <path d="M 15 72 L 18 66 A 4.5 4.5 0 0 1 21 72 Z" fill="#e0f7fa" opacity="0.7"/>
     <path d="M 15 72 L 20 75 A 4.5 4.5 0 0 1 14 77 Z" fill="#b2ebf2" opacity="0.5"/>
     
     <rect x="32" y="62" width="2.5" height="7" fill="#e0f7fa" opacity="0.7"/>
     <rect x="37" y="58" width="2.5" height="10" fill="#e0f7fa" opacity="0.8"/>
     <rect x="42" y="64" width="2.5" height="5" fill="#e0f7fa" opacity="0.6"/>
     
     <path d="M 8 78 L 48 70 L 52 74 L 12 84 Z" fill="url(#holoGrad)" opacity="0.6"/>
     <line x1="12" y1="80" x2="45" y2="73" stroke="#00bcd4" stroke-width="0.4" opacity="0.5"/>
     
     <circle cx="0" cy="52" r="1" fill="#00ffff" opacity="0.9"/>
     <circle cx="55" cy="45" r="0.8" fill="#00ffff" opacity="0.7"/>
     <circle cx="52" cy="82" r="0.9" fill="#00ffff" opacity="0.8"/>
     <circle cx="2" cy="72" r="0.6" fill="#00ffff" opacity="0.6"/>
     <circle cx="58" cy="65" r="0.5" fill="#00ffff" opacity="0.5"/>
   </g>
 </svg>