<svg xmlns="http://www.w3.org/2000/svg" viewBox="0 0 100 100" width="100" height="100">
   <defs>
     <linearGradient id="leafGrad" x1="0%" y1="0%" x2="100%" y2="100%">
       <stop offset="0%" style="stop-color:#7cb342;stop-opacity:1" />
       <stop offset="100%" style="stop-color:#558b2f;stop-opacity:1" />
     </linearGradient>
     
     <linearGradient id="holoGrad" x1="0%" y1="0%" x2="100%" y2="100%">
       <stop offset="0%" style="stop-color:#00ffff;stop-opacity:0.9" />
       <stop offset="50%" style="stop-color:#00bcd4;stop-opacity:0.7" />
       <stop offset="100%" style="stop-color:#00838f;stop-opacity:0.8" />
     </linearGradient>
     
     <filter id="glow">
       <feGaussianBlur stdDeviation="2" result="coloredBlur"/>
       <feMerge>
         <feMergeNode in="coloredBlur"/>
         <feMergeNode in="SourceGraphic"/>
       </feMerge>
     </filter>
     
     <linearGradient id="trunkGrad" x1="0%" y1="0%" x2="100%" y2="0%">
       <stop offset="0%" style="stop-color:#5d4037;stop-opacity:1" />
       <stop offset="50%" style="stop-color:#795548;stop-opacity:1" />
       <stop offset="100%" style="stop-color:#4e342e;stop-opacity:1" />
     </linearGradient>
   </defs>
   
   <circle cx="8" cy="12" r="6" fill="url(#leafGrad)" opacity="0.7"/>
   <circle cx="20" cy="8" r="5" fill="url(#leafGrad)" opacity="0.6"/>
   <circle cx="85" cy="15" r="7" fill="url(#leafGrad)" opacity="0.5"/>
   <circle cx="92" cy="28" r="4" fill="url(#leafGrad)" opacity="0.6"/>
   <circle cx="5" cy="85" r="5" fill="url(#leafGrad)" opacity="0.6"/>
   <circle cx="95" cy="88" r="4" fill="url(#leafGrad)" opacity="0.5"/>
   
   <path d="M 82 25 Q 84 50 82 75 L 88 75 Q 90 50 88 25 Z" fill="url(#trunkGrad)"/>
   <ellipse cx="85" cy="25" rx="5" ry="3" fill="#6d4c41"/>
   
   <path d="M 50 55 Q 42 48 35 55 L 28 82 Q 35 88 50 85 L 58 82 Z" fill="#8d6e63"/>
   <circle cx="42" cy="42" r="12" fill="#ffccbc"/>
   <path d="M 30 38 Q 32 28 42 28 Q 54 28 54 38 Q 54 44 50 46 Q 42 36 30 38" fill="#3e2723"/>
   <path d="M 32 35 Q 35 30 42 30 Q 50 30 52 35" fill="none" stroke="#3e2723" stroke-width="1"/>
   
   <path d="M 22 70 L 45 66 L 48 75 L 25 80 Z" fill="#fff8e1"/>
   <path d="M 22 70 L 45 66 L 45 69 L 22 73 Z" fill="#ffecb3"/>
   <path d="M 25 80 L 48 75 L 48 78 L 25 83 Z" fill="#ffe0b2"/>
   
   <g filter="url(#glow)">
     <ellipse cx="35" cy="62" rx="18" ry="12" fill="url(#holoGrad)" opacity="0.25"/>
     
     <path d="M 18 52 L 52 46 L 55 62 L 21 68 Z" fill="url(#holoGrad)" opacity="0.85"/>
     
     <path d="M 18 52 L 52 46" stroke="#80deea" stroke-width="0.5" opacity="0.8"/>
     
     <path d="M 22 58 L 28 54 L 35 60 L 45 52 L 50 56" stroke="#e0f7fa" stroke-width="1.2" fill="none" opacity="0.95"/>
     <circle cx="28" cy="54" r="1.5" fill="#fff" opacity="0.95"/>
     <circle cx="35" cy="60" r="1.5" fill="#fff" opacity="0.95"/>
     <circle cx="45" cy="52" r="1.5" fill="#fff" opacity="0.95"/>
     
     <circle cx="26" cy="64" r="4" stroke="#e0f7fa" stroke-width="0.8" fill="none" opacity="0.85"/>
     <path d="M 26 64 L 28 60 A 4 4 0 0 1 30 64 Z" fill="#e0f7fa" opacity="0.7"/>
     <path d="M 26 64 L 30 66 A 4 4 0 0 1 26 68 Z" fill="#b2ebf2" opacity="0.5"/>
     
     <rect x="38" y="58" width="2" height="6" fill="#e0f7fa" opacity="0.7"/>
     <rect x="42" y="56" width="2" height="8" fill="#e0f7fa" opacity="0.8"/>
     <rect x="46" y="60" width="2" height="4" fill="#e0f7fa" opacity="0.6"/>
     
     <path d="M 21 68 L 55 62 L 58 65 L 24 72 Z" fill="url(#holoGrad)" opacity="0.6"/>
     <line x1="25" y1="69" x2="52" y2="64" stroke="#00bcd4" stroke-width="0.3" opacity="0.5"/>
     
     <circle cx="12" cy="48" r="0.8" fill="#00ffff" opacity="0.9"/>
     <circle cx="60" cy="42" r="0.6" fill="#00ffff" opacity="0.7"/>
     <circle cx="58" cy="75" r="0.7" fill="#00ffff" opacity="0.8"/>
     <circle cx="15" cy="65" r="0.5" fill="#00ffff" opacity="0.6"/>
     <circle cx="62" cy="58" r="0.4" fill="#00ffff" opacity="0.5"/>
   </g>
   
   <circle cx="15" cy="95" r="3" fill="url(#leafGrad)" opacity="0.8"/>
   <circle cx="88" cy="92" r="2.5" fill="url(#leafGrad)" opacity="0.7"/>
 </svg>